<svg width="146" height="120" viewBox="0 0 146 120" fill="none" xmlns="http://www.w3.org/2000/svg">
<g clip-path="url(#clip0)">
<path d="M127.402 60C127.402 92.91 100.312 120 67.4021 120C34.4921 120 7.4021 92.91 7.4021 60C7.4021 27.0867 34.4888 0 67.4021 0C100.315 0 127.402 27.0867 127.402 60Z" fill="#0B3D91"/>
<path d="M68.2287 5.45005C68.2287 5.71671 68.0087 5.94005 67.7387 5.94005C67.4721 5.94005 67.2521 5.72005 67.2521 5.45005C67.2521 5.18338 67.4721 4.96338 67.7387 4.96338C68.0087 4.96338 68.2287 5.18338 68.2287 5.45005Z" fill="white"/>
<path d="M71.6154 12.8567C71.6154 13.1867 71.3454 13.4567 71.0154 13.4567C70.6854 13.4567 70.4154 13.1867 70.4154 12.8567C70.4154 12.5267 70.6887 12.2567 71.0154 12.2567C71.3421 12.2567 71.6154 12.5267 71.6154 12.8567Z" fill="white"/>
<path d="M80.4121 24.9633C80.4121 25.2933 80.1421 25.5633 79.8121 25.5633C79.4821 25.5633 79.2121 25.29 79.2121 24.9633C79.2121 24.6366 79.4821 24.3633 79.8121 24.3633C80.1388 24.36 80.4121 24.6333 80.4121 24.9633Z" fill="white"/>
<path d="M66.2754 17.03C66.2754 17.2967 66.0554 17.5167 65.7888 17.5167C65.5221 17.5167 65.2988 17.2967 65.2988 17.03C65.2988 16.7634 65.5188 16.5434 65.7888 16.5434C66.0554 16.54 66.2754 16.76 66.2754 17.03Z" fill="white"/>
<path d="M71.5388 19.8134C71.5388 20.08 71.3188 20.3 71.0521 20.3C70.7854 20.3 70.5654 20.08 70.5654 19.8134C70.5654 19.5467 70.7854 19.3234 71.0521 19.3234C71.3188 19.3234 71.5388 19.5434 71.5388 19.8134Z" fill="white"/>
<path d="M64.6954 12.03C64.6954 12.36 64.4254 12.63 64.0954 12.63C63.7654 12.63 63.4954 12.3566 63.4954 12.03C63.4954 11.7 63.7654 11.43 64.0954 11.43C64.4254 11.4266 64.6954 11.7 64.6954 12.03Z" fill="white"/>
<path d="M56.7287 16.88C56.7287 17.1467 56.5087 17.3667 56.2387 17.3667C55.9721 17.3667 55.7521 17.1467 55.7521 16.88C55.7521 16.6133 55.9721 16.39 56.2387 16.39C56.5054 16.39 56.7287 16.6133 56.7287 16.88Z" fill="white"/>
<path d="M58.1554 17.8567C58.1554 18.1234 57.9354 18.3467 57.6654 18.3467C57.3988 18.3467 57.1788 18.1267 57.1788 17.8567C57.1788 17.59 57.3988 17.37 57.6654 17.37C57.9354 17.3667 58.1554 17.59 58.1554 17.8567Z" fill="white"/>
<path d="M59.5854 18.8333C59.5854 19.1 59.3654 19.32 59.0988 19.32C58.8321 19.32 58.6088 19.1 58.6088 18.8333C58.6088 18.5667 58.8288 18.3467 59.0988 18.3467C59.3621 18.3467 59.5854 18.5667 59.5854 18.8333Z" fill="white"/>
<path d="M57.4021 20.7134C57.4021 20.9801 57.1821 21.2001 56.9154 21.2001C56.6488 21.2001 56.4288 20.9801 56.4288 20.7134C56.4288 20.4467 56.6488 20.2234 56.9154 20.2234C57.1821 20.2267 57.4021 20.4467 57.4021 20.7134Z" fill="white"/>
<path d="M46.0488 28.6833C46.0488 28.9533 45.8288 29.1733 45.5621 29.1733C45.2954 29.1733 45.0721 28.9533 45.0721 28.6833C45.0721 28.4167 45.2921 28.1967 45.5621 28.1967C45.8288 28.1967 46.0488 28.4167 46.0488 28.6833Z" fill="white"/>
<path d="M48.1554 31.24C48.1554 31.5067 47.9354 31.7267 47.6688 31.7267C47.4021 31.7267 47.1788 31.5067 47.1788 31.24C47.1788 30.9733 47.3988 30.75 47.6688 30.75C47.9354 30.75 48.1554 30.9733 48.1554 31.24Z" fill="white"/>
<path d="M46.5021 72.5167C46.5021 72.7834 46.2821 73.0067 46.0121 73.0067C45.7421 73.0067 45.5255 72.7867 45.5255 72.5167C45.5255 72.25 45.7455 72.03 46.0121 72.03C46.2788 72.03 46.5021 72.25 46.5021 72.5167Z" fill="white"/>
<path d="M46.8021 83.91C46.8021 84.24 46.5288 84.5133 46.2021 84.5133C45.8721 84.5133 45.6021 84.24 45.6021 83.91C45.6021 83.5833 45.8721 83.31 46.2021 83.31C46.5321 83.3066 46.8021 83.58 46.8021 83.91Z" fill="white"/>
<path d="M40.3354 89.7367C40.3354 90.0034 40.1154 90.2267 39.8454 90.2267C39.5788 90.2267 39.3588 90.0067 39.3588 89.7367C39.3588 89.47 39.5788 89.2467 39.8454 89.2467C40.1154 89.2467 40.3354 89.47 40.3354 89.7367Z" fill="white"/>
<path d="M32.5921 92.1066C32.5921 92.4333 32.3188 92.7066 31.9921 92.7066C31.6654 92.7066 31.3921 92.4333 31.3921 92.1066C31.3921 91.7766 31.6654 91.5033 31.9921 91.5033C32.3188 91.5033 32.5921 91.7766 32.5921 92.1066Z" fill="white"/>
<path d="M31.0121 86.8433C31.0121 87.17 30.7421 87.4433 30.4121 87.4433C30.0821 87.4433 29.8121 87.17 29.8121 86.8433C29.8121 86.5133 30.0854 86.24 30.4121 86.24C30.7421 86.24 31.0121 86.5133 31.0121 86.8433Z" fill="white"/>
<path d="M30.1088 90.1866C30.1088 90.4533 29.8888 90.6766 29.6221 90.6766C29.3554 90.6766 29.1354 90.4566 29.1354 90.1866C29.1354 89.9199 29.3554 89.7 29.6221 89.7C29.8888 89.7 30.1088 89.9199 30.1088 90.1866Z" fill="white"/>
<path d="M24.3221 87.4066C24.3221 87.6733 24.1021 87.8966 23.8354 87.8966C23.5687 87.8966 23.3454 87.6766 23.3454 87.4066C23.3454 87.14 23.5654 86.9166 23.8354 86.9166C24.1054 86.9166 24.3221 87.1366 24.3221 87.4066Z" fill="white"/>
<path d="M44.0588 97.2934C44.3275 97.2934 44.5454 97.074 44.5454 96.8034C44.5454 96.5327 44.3275 96.3134 44.0588 96.3134C43.79 96.3134 43.5721 96.5327 43.5721 96.8034C43.5721 97.074 43.79 97.2934 44.0588 97.2934Z" fill="white"/>
<path d="M50.0354 92.93C50.3668 92.93 50.6354 92.6613 50.6354 92.33C50.6354 91.9986 50.3668 91.73 50.0354 91.73C49.7041 91.73 49.4354 91.9986 49.4354 92.33C49.4354 92.6613 49.7041 92.93 50.0354 92.93Z" fill="white"/>
<path d="M51.3121 98.0834C51.3121 98.35 51.0921 98.57 50.8254 98.57C50.5588 98.57 50.3354 98.35 50.3354 98.0834C50.3354 97.8167 50.5554 97.5934 50.8254 97.5934C51.0921 97.5934 51.3121 97.8134 51.3121 98.0834Z" fill="white"/>
<path d="M76.3521 92.5933C76.3521 92.86 76.1321 93.0833 75.8621 93.0833C75.5954 93.0833 75.3754 92.8633 75.3754 92.5933C75.3754 92.3267 75.5954 92.1067 75.8621 92.1067C76.1288 92.1067 76.3521 92.3267 76.3521 92.5933Z" fill="white"/>
<path d="M64.6954 96.7299C64.6954 96.9966 64.4754 97.2199 64.2088 97.2199C63.9421 97.2199 63.7188 96.9999 63.7188 96.7299C63.7188 96.4599 63.9388 96.2433 64.2088 96.2433C64.4754 96.2433 64.6954 96.4599 64.6954 96.7299Z" fill="white"/>
<path d="M96.0487 102.67C96.0487 102.937 95.8287 103.16 95.5621 103.16C95.2954 103.16 95.0721 102.94 95.0721 102.67C95.0721 102.4 95.2921 102.18 95.5621 102.18C95.8287 102.18 96.0487 102.4 96.0487 102.67Z" fill="white"/>
<path d="M98.0054 80.15C98.3368 80.15 98.6054 79.8813 98.6054 79.55C98.6054 79.2186 98.3368 78.95 98.0054 78.95C97.674 78.95 97.4054 79.2186 97.4054 79.55C97.4054 79.8813 97.674 80.15 98.0054 80.15Z" fill="white"/>
<path d="M93.7955 82.82C93.7955 83.0866 93.5754 83.3066 93.3088 83.3066C93.0421 83.3066 92.8188 83.0866 92.8188 82.82C92.8188 82.5533 93.0388 82.33 93.3088 82.33C93.5754 82.33 93.7955 82.5533 93.7955 82.82Z" fill="white"/>
<path d="M98.5321 83.76C98.5321 84.0867 98.2621 84.36 97.9321 84.36C97.6054 84.36 97.3321 84.0867 97.3321 83.76C97.3321 83.43 97.6054 83.16 97.9321 83.16C98.2588 83.16 98.5321 83.43 98.5321 83.76Z" fill="white"/>
<path d="M93.7955 89.5867C93.7955 89.8533 93.5754 90.0767 93.3088 90.0767C93.0421 90.0767 92.8188 89.8567 92.8188 89.5867C92.8188 89.32 93.0388 89.1 93.3088 89.1C93.5754 89.1 93.7955 89.32 93.7955 89.5867Z" fill="white"/>
<path d="M106.049 76.28C106.049 76.5467 105.829 76.77 105.562 76.77C105.295 76.77 105.072 76.55 105.072 76.28C105.072 76.0134 105.292 75.79 105.562 75.79C105.829 75.79 106.049 76.01 106.049 76.28Z" fill="white"/>
<path d="M107.252 79.2499C107.252 79.5766 106.982 79.8499 106.652 79.8499C106.322 79.8499 106.049 79.5799 106.049 79.2499C106.049 78.9199 106.322 78.6499 106.652 78.6499C106.982 78.6466 107.252 78.9199 107.252 79.2499Z" fill="white"/>
<path d="M115.072 83.38C115.403 83.38 115.672 83.1114 115.672 82.78C115.672 82.4487 115.403 82.1801 115.072 82.1801C114.741 82.1801 114.472 82.4487 114.472 82.78C114.472 83.1114 114.741 83.38 115.072 83.38Z" fill="white"/>
<path d="M106.615 89.5499C106.886 89.5499 107.105 89.3306 107.105 89.0599C107.105 88.7893 106.886 88.5699 106.615 88.5699C106.345 88.5699 106.125 88.7893 106.125 89.0599C106.125 89.3306 106.345 89.5499 106.615 89.5499Z" fill="white"/>
<path d="M112.519 83.9467C112.519 84.2133 112.299 84.4333 112.029 84.4333C111.762 84.4333 111.539 84.2133 111.539 83.9467C111.539 83.68 111.759 83.4567 112.029 83.4567C112.295 83.4567 112.519 83.68 112.519 83.9467Z" fill="white"/>
<path d="M111.539 91.8433C111.539 92.1099 111.319 92.3299 111.052 92.3299C110.785 92.3299 110.562 92.1099 110.562 91.8433C110.562 91.5766 110.782 91.3533 111.052 91.3533C111.319 91.3533 111.539 91.5766 111.539 91.8433Z" fill="white"/>
<path d="M78.7621 11.4634C78.8455 11.1567 79.0921 10.92 79.4021 10.85L79.5755 9.56335L79.8288 10.86C80.1321 10.9467 80.3621 11.1934 80.4288 11.5034L81.7321 11.69L80.4188 11.92C80.3355 12.2167 80.0955 12.45 79.7955 12.5234L79.5755 13.8467L79.3521 12.5134C79.0588 12.43 78.8321 12.19 78.7588 11.8934L77.5021 11.69L78.7621 11.4634Z" fill="white"/>
<path d="M45.0521 103.697C45.1354 103.393 45.3821 103.157 45.6921 103.083L45.8621 101.797L46.1154 103.097C46.4188 103.18 46.6521 103.427 46.7188 103.737L48.0221 103.923L46.7088 104.157C46.6254 104.453 46.3854 104.687 46.0854 104.757L45.8654 106.08L45.6421 104.747C45.3488 104.663 45.1221 104.427 45.0488 104.127L43.7921 103.923L45.0521 103.697Z" fill="white"/>
<path d="M107.045 91.8033C107.129 91.5 107.375 91.26 107.685 91.19L107.859 89.9033L108.112 91.2C108.415 91.2867 108.645 91.5333 108.712 91.84L110.015 92.0233L108.699 92.2567C108.615 92.5533 108.375 92.7867 108.075 92.86L107.855 94.1833L107.632 92.85C107.339 92.7633 107.112 92.5267 107.039 92.23L105.782 92.0233L107.045 91.8033Z" fill="white"/>
<path d="M111.955 78.5433C112.035 78.2366 112.285 78 112.595 77.93L112.765 76.6433L113.022 77.9433C113.322 78.03 113.555 78.2766 113.622 78.5833L114.925 78.7666L113.609 79C113.529 79.2966 113.289 79.53 112.989 79.6L112.765 80.9267L112.545 79.5933C112.252 79.5066 112.025 79.27 111.952 78.9733L110.695 78.7666L111.955 78.5433Z" fill="white"/>
<path d="M51.0687 29.56C51.1521 29.2534 51.3987 29.0167 51.7087 28.9467L51.8821 27.66L52.1354 28.96C52.4354 29.0467 52.6721 29.2934 52.7387 29.6L54.0421 29.7867L52.7287 30.02C52.6454 30.3167 52.4087 30.55 52.1054 30.6234L51.8854 31.9467L51.6621 30.6134C51.3687 30.53 51.1421 30.2934 51.0687 29.9934L49.8121 29.79L51.0687 29.56Z" fill="white"/>
<path d="M47.0921 57.4767C51.5254 65.22 56.6887 70.89 60.8521 76.2733C64.5454 81.0533 71.7421 83.4467 69.2087 85.7133C66.3521 88.27 59.4354 76.9933 59.4354 76.9933C54.8387 71.4533 50.4388 65.57 45.9521 57.8767L47.0921 57.4767Z" fill="white"/>
<path d="M0.22876 77.8C21.6454 63.7333 59.0221 54.6533 89.8088 42.43C113.195 33.1433 133.995 21.4866 145.175 5.43665C116.842 63.15 37.9321 56.32 1.76876 78.34L0.22876 77.8Z" fill="#FC3D21"/>
<path d="M57.3221 62.7934L54.2187 54.9267L51.9421 62.7934H57.3221ZM50.0187 49.1801H60.7454L68.4354 68.5467L70.9987 71.1201H57.0354L59.5987 68.5467L58.6887 66.1834H50.9821L50.1887 68.8867L52.0254 71.1201H44.7421L47.3054 68.5467L52.2454 51.4201L50.0187 49.1801Z" fill="white"/>
<path d="M107.559 62.7934L104.455 54.9267L102.179 62.7934H107.559ZM99.8487 49.1801H110.982L118.672 68.5467L121.239 71.1201H107.272L109.839 68.5467L108.929 66.1834H101.222L100.429 68.8867L102.269 71.1201H94.9854L97.5487 68.5467L102.489 51.4201L99.8487 49.1801Z" fill="white"/>
<path d="M35.4654 62.8434C35.4654 61.8934 35.4654 51.4201 35.4654 51.4201L33.2387 49.1801H40.6587L38.4321 51.4201V68.5467L40.9954 71.1201H31.2487L22.8487 56.9101C22.8487 57.4534 22.8487 68.5467 22.8487 68.5467L25.0054 71.1201H17.2521L19.8154 68.5467V51.4201L17.5887 49.1801H27.3021L35.4654 62.8434Z" fill="white"/>
<path d="M91.6487 54.8067L91.422 47.9767L89.122 49.5634C85.882 48.43 82.112 48.4734 79.4687 49.7234C77.0054 50.89 74.3487 53.35 74.672 56.8434C74.9987 60.34 77.7054 61.6934 80.1487 62.8C83.292 64.2234 86.712 64.7067 86.662 66.59C86.6287 67.7867 84.642 68.6434 83.0954 68.5967C81.6854 68.5534 77.102 68.21 74.7054 65.36L75.1587 72.5467L77.7187 70.67C80.8287 71.77 84.5954 72.2334 88.082 71.0934C91.5487 69.9667 95.192 67.0634 93.172 61.9967C92.302 59.8134 89.9054 58.47 88.4754 57.8867C87.1654 57.35 83.172 55.78 82.0587 55.2C80.7554 54.52 80.902 52.3667 84.0354 51.93C86.8754 51.53 90.8054 53.8034 91.6487 54.8067Z" fill="white"/>
<path d="M16.8121 111.48C59.8221 67.58 123.932 47.3 145.175 5.43665C132.385 46.1366 63.8788 68.5833 16.6954 113.543L16.8121 111.48Z" fill="#FC3D21"/>
<path d="M45.9487 57.8734C45.4454 57.01 44.9421 56.1234 44.4354 55.2134C32.9687 34.5834 34.6221 13.5334 55.3754 22.7067C72.9887 30.4934 89.8121 52.33 96.5754 67.84C99.7121 75.0234 108.119 103.23 81.0487 91.8L80.9954 91.6367C106.559 102.163 102.139 75.4867 88.4554 55.0367C80.7121 43.4634 70.6121 33.8234 64.2421 29.1734C43.0387 13.6834 30.1054 23.1567 44.9954 53.5334C45.6687 54.91 46.3687 56.22 47.0887 57.4767L45.9487 57.8734Z" fill="white"/>
</g>
<defs>
<clipPath id="clip0">
<rect width="144.947" height="120" fill="white" transform="translate(0.22876)"/>
</clipPath>
</defs>
</svg>
