<?xml version="1.0" standalone="no"?>
<!DOCTYPE svg PUBLIC "-//W3C//DTD SVG 20010904//EN"
 "http://www.w3.org/TR/2001/REC-SVG-20010904/DTD/svg10.dtd">
<svg version="1.0" xmlns="http://www.w3.org/2000/svg"
 width="658.000000pt" height="527.000000pt" viewBox="0 0 658.000000 527.000000"
 preserveAspectRatio="xMidYMid meet">

<g transform="translate(0.000000,527.000000) scale(0.100000,-0.100000)"
fill="#000000" stroke="none">
<path d="M3145 4454 c-287 -32 -576 -162 -774 -349 -77 -73 -175 -184 -168
-191 2 -2 66 12 141 31 75 19 144 35 152 35 9 0 50 26 93 58 379 286 909 310
1314 61 44 -27 53 -29 76 -19 30 14 140 92 141 100 0 12 -168 115 -245 150
-181 84 -334 119 -540 124 -82 2 -168 2 -190 0z"/>
<path d="M4215 4071 c-6 -5 -43 -25 -83 -46 l-72 -37 51 -57 c115 -124 182
-236 234 -384 l31 -91 102 -45 c56 -24 104 -43 106 -40 10 10 -29 182 -61 269
-55 148 -135 280 -237 388 -51 55 -56 57 -71 43z"/>
<path d="M2337 3839 c-26 -10 -94 -41 -151 -67 l-103 -49 -36 -109 c-34 -104
-66 -268 -55 -279 3 -3 53 20 111 52 97 53 106 61 112 93 16 85 98 256 171
358 19 26 15 26 -49 1z"/>
<path d="M4390 3226 c0 -108 -20 -210 -63 -324 l-34 -91 82 -55 83 -55 25 57
c64 142 107 305 107 401 l0 40 -94 56 c-52 30 -97 55 -100 55 -3 0 -6 -38 -6
-84z"/>
<path d="M2083 3228 c-105 -69 -101 -60 -78 -189 20 -105 38 -163 82 -261 l35
-77 83 55 83 56 -33 82 c-40 99 -65 222 -65 322 0 41 -3 74 -7 73 -5 0 -50
-28 -100 -61z"/>
<path d="M3225 2863 c-124 -205 -285 -482 -285 -492 0 -5 42 -20 93 -32 134
-34 370 -34 510 -1 53 13 97 28 97 33 0 10 -116 211 -240 414 -40 66 -80 132
-89 147 -9 16 -18 28 -21 28 -3 0 -32 -44 -65 -97z"/>
<path d="M2272 2642 l-72 -67 60 -72 c91 -109 258 -245 377 -307 l33 -16 56
76 c31 41 54 77 52 79 -1 1 -28 17 -58 35 -127 74 -261 192 -350 307 l-25 33
-73 -68z"/>
<path d="M4190 2655 c-85 -110 -234 -236 -347 -294 -24 -12 -43 -24 -43 -27 0
-3 25 -39 55 -80 l55 -74 33 16 c59 31 161 102 234 164 74 62 193 195 193 215
0 6 -31 39 -69 73 l-69 61 -42 -54z"/>
<path d="M2842 2209 c-23 -45 -40 -84 -37 -87 10 -10 174 -54 260 -68 139 -25
417 -15 551 19 81 21 132 37 161 52 2 1 -16 37 -40 81 -26 47 -49 78 -57 77
-8 0 -50 -11 -93 -22 -219 -58 -417 -51 -682 24 -17 5 -27 -8 -63 -76z"/>
<path d="M1081 1630 c-55 -12 -120 -50 -147 -87 -43 -58 -49 -97 -49 -314 l0
-205 30 -59 c60 -117 137 -139 465 -133 201 3 206 4 263 31 115 57 137 117
137 371 0 257 -23 321 -139 375 -55 25 -61 26 -286 28 -126 1 -250 -2 -274 -7z
m474 -155 c21 -8 39 -25 45 -40 13 -34 13 -366 0 -399 -17 -47 -39 -51 -260
-51 -113 0 -218 4 -233 8 -47 13 -57 54 -57 240 0 187 8 223 54 243 46 20 403
19 451 -1z"/>
<path d="M1935 1627 c-3 -6 -4 -188 -3 -402 l3 -390 73 -3 c86 -3 84 -7 86
116 l1 87 220 6 c181 4 228 9 265 24 109 44 149 105 157 238 13 200 -56 299
-227 326 -97 16 -569 14 -575 -2z m581 -159 c19 -10 37 -31 43 -49 15 -44 14
-123 -3 -163 -22 -54 -54 -61 -271 -61 l-190 0 -3 134 c-1 74 0 141 3 149 8
22 379 13 421 -10z"/>
<path d="M2895 1627 c-3 -6 -4 -188 -3 -402 l3 -390 340 -3 c187 -1 350 0 363
3 21 5 23 10 20 73 l-3 67 -280 5 -280 5 0 90 0 90 185 5 185 5 0 65 0 65
-185 5 -185 5 0 85 0 85 280 5 280 5 3 64 c2 45 -1 67 -10 72 -7 5 -170 9
-361 9 -269 0 -349 -3 -352 -13z"/>
<path d="M3775 1628 c-3 -7 -4 -189 -3 -403 l3 -390 75 0 75 0 3 103 3 102
154 0 154 0 73 -102 73 -103 83 -3 c65 -2 83 0 88 12 3 9 -24 54 -70 114 l-75
99 40 18 c49 23 102 80 120 131 21 59 18 218 -4 276 -23 59 -83 113 -152 135
-69 23 -632 33 -640 11z m559 -151 c54 -17 79 -54 83 -124 3 -42 -1 -68 -14
-93 -30 -59 -54 -64 -273 -65 l-195 0 -3 134 c-1 74 0 141 2 148 7 17 343 17
400 0z"/>
<path d="M5113 1628 c-6 -7 -50 -89 -98 -183 -49 -93 -137 -264 -197 -379 -60
-115 -107 -215 -104 -222 6 -16 136 -20 164 -5 10 5 31 37 47 70 l29 61 250 0
251 0 35 -68 35 -67 79 -3 c44 -2 83 1 89 7 8 8 -147 321 -345 696 l-53 100
-86 3 c-61 2 -89 -1 -96 -10z m158 -285 c34 -71 74 -154 90 -185 l29 -58 -185
0 -185 0 92 185 c51 102 94 185 95 185 2 0 30 -57 64 -127z"/>
</g>
</svg>
